<svg width="1839" height="342" viewBox="0 0 1839 342" fill="none" xmlns="http://www.w3.org/2000/svg">
<path d="M133.079 268.638C53.1643 266.912 -3.37291 204.811 0.162892 130.649C2.45882 82.4929 25.5408 42.3754 69.1061 20.8759C121.149 -4.80712 180.65 4.72572 220.655 53.3159C228.749 63.1474 235.421 74.1728 242.464 84.8357C249.692 95.7799 246.04 101.823 233.373 101.86C208.977 101.932 185.387 106.393 168.031 78.2715C154.054 55.6257 109.545 56.3327 87.7944 73.5599C54.5232 99.9113 47.9074 139.605 69.7985 177.802C91.1931 215.132 130.44 223.681 166.48 203.49C168.016 202.629 170.285 201.974 170.852 200.645C183.898 170.061 210.957 179.294 234.246 178.542C246.291 178.153 247.743 183.544 242.87 194.445C227.346 229.168 199.237 248.759 165.069 261.253C155.348 264.807 144.863 266.274 133.079 268.638Z" fill="#FAF9FB"/>
<path d="M900.828 91.9769C903.75 95.5936 905.386 98.5343 906.946 101.338C910.727 95.0766 913.631 85.2214 917.444 84.8566C931.596 83.5036 946.082 84.9275 960.336 86.3621C961.925 86.5222 963.881 93.4094 963.902 97.1867C964.185 148.41 964.359 199.638 963.844 250.858C963.799 255.263 959.12 262.973 955.837 263.406C942.84 265.117 929.448 265.481 916.416 264.195C912.885 263.846 910.101 255.941 906.057 250.202C876.284 275.925 844.402 272.85 811.153 254.297C790.161 242.583 781.071 222.539 776.472 202.198C768.213 165.672 775.003 131.526 804.158 104.14C825.401 84.185 864.557 76.7004 891.225 88.9802C893.806 90.1686 896.76 90.5467 900.828 91.9769ZM837.312 144.599C834.871 157.69 830.235 170.831 830.531 183.86C830.921 201.072 842.052 212.573 858.113 219.188C871.995 224.907 884.765 222.29 893.016 210.782C900.229 200.722 905.83 188.568 908.642 176.524C912.625 159.467 900.625 143.113 884.473 134.375C866.439 124.619 852.886 133.098 837.312 144.599Z" fill="#F9F9FB"/>
<path d="M1748.1 104.711C1786.41 142.497 1791.28 191.437 1760.26 232.362C1737 263.058 1686.38 277.707 1649.91 263.762C1591.35 241.371 1578.51 190.48 1592.17 144.051C1601.87 111.093 1625.66 91.3175 1660.07 83.7496C1692.72 76.5678 1720.91 84.9933 1748.1 104.711ZM1701.04 217.92C1702.26 216.082 1703.06 213.642 1704.75 212.497C1728.6 196.32 1722.75 173.429 1717.8 151.526C1714.24 135.775 1685.58 124.833 1670.5 130.944C1646.42 140.697 1644.83 159.692 1645.65 181.886C1646.84 213.884 1666.18 228.233 1701.04 217.92Z" fill="#F9F8FB"/>
<path d="M428.334 108.428C454.495 140.875 463.485 176.091 445.333 212.963C414.839 274.902 350.629 284.26 300.973 251.318C260.38 224.388 249.965 179.744 271.196 132.981C297.134 75.8511 377.308 71.6242 417.191 100.788C420.466 103.183 424.001 105.223 428.334 108.428ZM356.702 127.434C320.095 136.79 317.028 158.264 319.013 180.796C320.938 202.635 332.789 219.311 355.122 221.559C371.819 223.24 388.161 210.593 393.672 192.034C402.59 162 391.28 140.598 356.702 127.434Z" fill="#FAF9FB"/>
<path d="M1250.67 203.481C1250.65 220.378 1250.14 235.488 1250.78 250.549C1251.25 261.699 1246.81 265.964 1235.9 265.117C1228.69 264.557 1221.17 266.157 1214.23 264.696C1207.09 263.194 1200.49 259.148 1193.65 256.215C1194.23 254.763 1194.8 253.311 1195.37 251.86C1186.12 256.28 1177.17 261.591 1167.55 264.949C1141.39 274.077 1104.58 261.925 1092.68 238.592C1087.87 229.171 1087.87 216.728 1087.69 205.627C1087.12 170.63 1087.94 135.609 1087.27 100.616C1087.04 88.0493 1090.99 83.5206 1103.83 83.8952C1149.56 85.2298 1140.95 78.347 1141.78 120.488C1142.21 142.208 1141.86 163.942 1141.88 185.67C1141.9 205.76 1150.53 217.812 1165 217.995C1185.02 218.248 1195.78 207.83 1196.22 186.041C1196.78 158.288 1197.02 130.496 1196.14 102.761C1195.7 88.9615 1199.17 83.2875 1214.21 83.7453C1257.31 85.0566 1250 78.3744 1250.6 120.194C1250.99 147.348 1250.67 174.513 1250.67 203.481Z" fill="#F9F8FA"/>
<path d="M555.915 130.309C530.194 134.326 525.357 139.76 525.303 162.955C525.235 191.909 524.814 220.871 525.429 249.811C525.685 261.831 521.239 265.479 509.539 265.207C463.154 264.129 471.605 270.429 471.104 227.133C470.616 184.915 471.414 142.681 470.793 100.467C470.606 87.7698 474.801 82.7324 487.471 83.8956C495.252 84.6099 503.379 82.8865 510.927 84.3874C516.951 85.5856 522.335 90.0013 530.948 94.5409C537.649 92.1751 549.14 87.0988 561.147 84.0652C600.888 74.0249 634.077 100.205 634.111 141.026C634.14 176.615 633.562 212.216 634.392 247.785C634.715 261.589 629.724 266.118 616.539 265.168C605.152 264.349 593.659 264.998 579.832 264.998C579.832 229.988 579.341 195.274 580.042 160.584C580.383 143.723 573.376 134.218 555.915 130.309Z" fill="#F8F8FA"/>
<path d="M1392.27 257.886C1393.14 233.265 1394.39 210.214 1394.74 187.149C1394.88 177.745 1391.94 168.25 1392.44 158.906C1393.18 145.048 1385.9 136.158 1374.39 134.025C1365.09 132.302 1351.1 133.361 1345.65 139.201C1339.32 145.993 1338.39 159.281 1338 169.857C1337.01 196.387 1337.22 222.988 1337.84 249.54C1338.12 261.348 1334.03 265.521 1322.14 265.202C1276 263.961 1283.97 271.433 1283.48 227.475C1283.02 185.215 1283.81 142.94 1283.17 100.685C1282.99 89.0569 1287.54 84.3501 1298.25 84.1115C1307.31 83.9096 1316.58 82.9067 1325.37 84.4481C1330.76 85.3944 1335.44 90.4638 1342.37 94.9277C1362.22 81.5171 1387.13 76.1538 1414.38 87.5611C1435.35 96.3364 1445.98 112.344 1446.33 134.406C1446.95 173.038 1446.24 211.69 1446.67 250.328C1446.79 261.283 1442.88 266.373 1431.9 264.973C1418.67 263.288 1405.49 261.305 1392.27 257.886Z" fill="#FAF9FB"/>
<path d="M1486.49 185.182C1486.5 173.769 1486.59 164.127 1486.48 154.489C1486.33 140.602 1490.93 123.749 1466.18 126.107C1464.15 126.301 1458.55 109.976 1458.24 101.198C1457.95 92.9183 1460.86 82.8037 1473.51 84.2639C1477.42 84.7151 1481.17 86.4481 1485.45 87.7301C1486.42 72.6955 1486.86 58.5503 1488.51 44.5479C1489.08 39.6537 1492.26 31.3175 1494.92 31.0418C1509.2 29.5639 1523.74 29.5131 1538.07 30.6067C1540.46 30.7893 1543.76 38.9377 1544.01 43.548C1544.78 57.8032 1544.29 72.1276 1544.29 86.2124C1581.01 89.6155 1580.42 89.625 1580.75 110.624C1581.22 140.664 1557.4 121.053 1544.38 130.876C1544.38 152.299 1543.75 176.797 1544.65 201.239C1545.08 212.891 1553.39 218.702 1565.06 217.925C1588.01 216.394 1579.24 233.529 1580.47 244.226C1581.91 256.658 1577.82 265.907 1563.01 264.95C1549.49 264.076 1535.71 263.923 1522.58 261.023C1501.98 256.474 1487.81 234.741 1486.52 208.643C1486.16 201.431 1486.48 194.186 1486.49 185.182Z" fill="#F8F8FA"/>
<path d="M706.093 259.136C684.121 253.973 677.535 236.088 674.491 210.361C672.452 193.129 674.093 175.459 674.116 157.985C674.155 129.255 674.164 129.255 646.126 125.784C646.126 114.084 646.126 102.214 646.126 88.4915C654.418 86.6136 663.783 84.4926 673.945 82.1912C673.945 66.8692 673.945 51.3322 673.945 32.6882C692.255 32.6882 709.699 32.6882 729.575 32.6882C729.575 51.5712 729.575 68.6091 729.575 85.815C736.886 85.1191 742.067 83.3913 746.564 84.4809C753.719 86.2144 765.414 88.7363 766.315 92.8606C768.466 102.703 766.197 113.85 763.861 124.047C763.387 126.117 754.567 127.777 749.94 127.135C731.806 124.62 726.687 132.569 728.196 149.573C729.522 164.519 728.588 179.677 728.439 194.739C728.287 210.048 735.329 218.894 750.993 217.795C764.485 216.849 768.794 221.609 768.513 235.172C767.898 264.896 753.503 273.751 718.601 264.162C714.718 263.095 710.977 261.512 706.093 259.136Z" fill="#F8F8FA"/>
<path d="M1000.43 250.138C1000.43 214.626 1000.68 180.864 1000.32 147.109C1000.16 131.791 998.518 116.494 998.077 101.173C997.8 91.5607 1000.9 83.9871 1012.58 84.0258C1024.63 84.0656 1036.68 84.0346 1050.33 84.0346C1050.61 89.3475 1051.13 94.5039 1051.13 99.6607C1051.2 161.754 1049.4 223.923 1052.04 285.905C1053.2 313.18 1022.29 340.827 997.436 341.073C981.173 341.234 964.907 341.103 947.333 341.103C947.333 325.936 947.333 311.228 947.333 297.375C962.563 294.288 980.456 294.525 993.181 286.541C1000.12 282.186 998.303 263.896 1000.43 250.138Z" fill="#FAFAFC"/>
<path d="M1045.99 5.1338C1058.43 34.5568 1056.72 42.1289 1039.5 54.2106C1025.3 64.1794 1012.12 57.92 1002.61 49.7203C995.691 43.7537 989.117 33.0533 996.229 19.8847C1003.9 5.68599 1014 -0.601494 1029.38 0.838576C1034.54 1.32199 1039.58 3.14884 1045.99 5.1338Z" fill="#FAF9FA"/>
<path d="M1788.58 260.817C1776.57 249.156 1774.97 237.238 1783.21 224.266C1791.83 210.676 1805.46 206.598 1818.93 212.21C1831.39 217.398 1842.94 228.394 1837.37 243.899C1834.03 253.184 1825.83 263.619 1817.18 267.209C1810 270.189 1798.98 263.921 1788.58 260.817Z" fill="#F8F7F9"/>
</svg>
