<svg width="2674" height="505" viewBox="0 0 2674 505" fill="none" xmlns="http://www.w3.org/2000/svg">
<path d="M170.812 297.575C123.436 297.583 76.937 297.586 30.4381 297.606C24.3746 297.609 18.6812 297.195 18.14 289.169C17.4957 279.613 18.7137 278.38 29.5672 278.378C153.857 278.348 278.146 278.338 402.436 278.326C447.472 278.322 492.51 278.197 537.545 278.509C542.702 278.545 548.54 279.922 552.869 282.601C571.527 294.149 591.263 301.624 613.452 299.215C629.847 297.436 645.405 292.49 658.949 282.46C662.108 280.121 665.571 278.191 668.893 276.071C676.622 271.139 685.425 275.102 684.625 284.247C683.648 295.416 680.966 306.576 677.81 317.386C669.988 344.182 656.29 367.723 636.278 387.362C616.565 406.707 593.167 420.563 566.897 428.161C549.832 433.097 532.249 436.49 513.811 436.359C416.431 435.664 319.044 435.965 221.66 436.189C215.303 436.204 211.153 433.806 210.293 428.354C209.803 425.241 212.261 420.968 214.643 418.358C216.115 416.744 219.938 416.894 222.707 416.892C284.998 416.828 347.289 416.871 409.58 416.816C413.048 416.813 416.516 416.142 421.73 415.601C413.696 402.944 402.517 411.043 394.142 407.032C394.142 406.086 393.604 403.82 394.222 403.443C405 396.86 410.283 386.322 415.149 375.377C415.862 373.772 417.698 371.451 418.95 371.491C429.177 371.818 440.853 365.996 448.638 377.83C448.839 378.135 449.711 377.999 451.779 378.255C452.469 364.318 453.153 350.512 453.837 336.705C453.305 336.171 452.773 335.636 452.241 335.101C444.053 346.691 432.497 342.72 421.942 343.092C420.099 343.157 417.385 342.179 416.455 340.772C409.02 329.517 401.917 318.044 394.555 306.388C398.503 306.388 403.71 306.973 408.707 306.202C412.67 305.59 416.376 303.317 420.195 301.781C419.883 300.379 419.57 298.977 419.257 297.575C336.734 297.575 254.212 297.575 170.812 297.575ZM568.906 406.336C574.257 404.012 579.567 401.59 584.965 399.382C606.197 390.698 622.231 375.613 635.804 357.699C636.937 356.203 635.726 352.156 634.513 349.872C633.144 347.293 630.737 345.135 628.436 343.205C623.562 339.117 625.074 333.304 627.726 330.521C630.189 327.935 636.194 327.293 640.225 328.037C643.97 328.729 647.169 332.379 650.888 334.918C654.355 325.247 657.592 316.22 661.065 306.531C648.107 310.016 636.667 313.651 624.973 316.049C616.61 317.763 607.839 318.877 599.371 318.343C589.281 317.707 579.321 315.022 568.951 312.248C567.999 312.185 567.046 312.123 566.093 312.06C566.641 312.832 567.19 313.603 568.513 315.327C578.136 320.796 580.808 328.989 579.89 339.813C578.909 351.389 579.415 363.12 579.745 374.771C580.044 385.36 580.668 395.731 568.509 400.98C567.287 401.508 566.83 403.801 565.209 405.92C564.988 406.521 564.766 407.123 564.545 407.724C565.537 407.3 566.528 406.875 568.906 406.336ZM562.173 373.11C562.173 360.941 562.173 348.773 562.173 337.552C555.822 339.942 551.589 342.438 547.1 343.045C536.287 344.508 525.689 344.464 522.287 330.607C522.107 329.875 521.073 329.38 520.517 328.708C514.678 321.651 508.856 314.58 503.183 307.701C511.598 302.915 524.245 312.584 529.86 298.013C501.77 298.013 475.075 298.013 445.097 298.013C450.856 305.018 454.56 310.758 459.46 315.174C465.777 320.869 469.968 326.373 469.359 335.774C468.4 350.595 468.487 365.559 469.337 380.393C469.875 389.784 466.061 395.151 458.86 400.335C453.917 403.893 450.647 409.771 445.106 416.447C474.529 416.447 500.655 416.447 527.697 416.447C524.307 400.889 511.221 412.264 504.049 406.206C504.799 404.883 505.579 402.82 506.931 401.248C512.071 395.27 517.645 389.65 522.547 383.492C525.099 380.287 525.876 375.504 528.725 372.743C532.907 368.691 552.52 371.398 557.081 375.848C559.368 378.081 561.772 380.702 562.173 373.11ZM544.826 401.046C546.121 398.642 548.84 395.885 548.352 393.924C547.739 391.462 544.793 388.941 542.256 387.896C541.182 387.453 537.647 390.337 536.855 392.348C534.538 398.228 537.836 400.738 544.826 401.046ZM548.052 317.978C545.74 316.462 543.235 313.547 541.171 313.831C539.172 314.105 535.838 318.152 536.253 319.689C537.113 322.877 540.071 325.499 543.268 329.854C545.545 324.894 546.812 322.135 548.052 317.978ZM433.895 314.06C431.604 314.985 427.472 315.749 427.374 316.868C427.094 320.046 428.275 323.435 429.404 326.553C429.552 326.959 433.943 326.811 434.337 325.97C435.639 323.189 436.107 319.989 436.639 316.906C436.724 316.415 435.492 315.696 433.895 314.06ZM437.526 393.665C436.008 391.247 434.49 388.83 431.414 383.931C429.341 389.81 427.646 392.957 427.37 396.223C427.261 397.515 430.956 400.578 431.795 400.219C434.032 399.26 435.66 396.881 437.526 393.665Z" fill="#F9F9FA"/>
<path d="M405.933 195.939C402.245 195.94 399.335 195.94 394.712 195.94C403.138 183.486 410.919 171.985 419.405 159.444C441.819 157.582 443.227 157.859 450.72 167.011C450.72 152.36 450.72 138.675 450.72 124.886C449.786 125.263 447.863 125.484 446.793 126.555C435.805 137.56 421.185 135.212 413.503 122.084C407.988 112.66 400.81 104.208 393.637 94.3053C399.981 94.3053 405.737 94.7509 411.365 94.0968C413.783 93.8157 415.935 91.2521 418.209 89.7255C415.822 88.3089 413.442 85.6717 411.046 85.6573C369.825 85.4094 328.601 85.4866 287.378 85.489C265.158 85.4903 242.938 85.5534 220.719 85.4518C210.761 85.4062 206.079 79.8166 209.651 72.1863C210.509 70.3547 213.101 69.2581 215.036 68.0489C215.672 67.6521 216.752 67.9668 217.629 67.9569C269.821 67.3693 322.012 66.7493 374.204 66.2161C388.21 66.073 402.224 65.9728 416.226 66.25C434.496 66.6116 452.755 67.5567 471.025 67.8482C476.997 67.9435 482.999 66.2022 488.971 66.3006C507.835 66.6114 526.785 66.4731 545.516 68.3528C556.249 69.4299 567 73.1771 577.058 77.3644C588.606 82.172 599.677 88.3263 610.448 94.7454C625.208 103.542 636.909 115.912 648.136 128.807C663.322 146.248 671.063 167.579 679.174 188.511C682.983 198.343 683.883 209.539 684.57 220.215C684.826 224.176 681.645 230.191 678.281 231.976C675.541 233.429 669.507 230.936 666.116 228.53C650.407 217.386 634.025 208.156 614.106 208.31C601.703 208.406 589.126 208.313 576.968 210.344C568.054 211.834 559.775 216.874 551.056 219.876C545.784 221.691 540.213 223.799 534.773 223.806C370.758 224.022 206.742 223.984 42.7262 224.034C37.4066 224.036 32.6252 224.684 31.2388 217.178C29.8683 209.758 31.9434 205.432 39.3601 204.782C42.2615 204.528 45.2036 204.735 48.1272 204.736C168.581 204.744 289.034 204.761 409.488 204.717C412.98 204.715 416.473 204.056 420.431 203.656C418.071 194.483 411.978 196.088 405.933 195.939ZM570.746 192.479C602.104 182.94 632.207 187.397 663.023 203.16C658.681 191.142 655.332 181.873 651.799 172.093C646.977 174.595 643.899 176.853 640.458 177.818C635.639 179.168 629.94 179.752 627.648 173.979C625.37 168.244 627.157 161.818 632.726 159.46C641.266 155.844 639.99 151.906 635.845 145.83C626.462 132.078 614.565 121.13 600.927 111.681C589.591 103.826 577.69 97.7058 563.185 95.8394C565.477 99.6336 569.214 101.846 572.101 104.868C575.056 107.96 579.205 111.776 579.33 115.396C580.025 135.485 579.858 155.615 579.407 175.718C579.347 178.413 576.111 181.107 574.17 183.668C572.15 186.333 569.917 188.837 566.983 192.075C566.752 192.668 566.521 193.26 566.291 193.853C567.3 193.439 568.309 193.025 570.746 192.479ZM507.839 102.019C506.309 99.7708 504.778 97.523 502.904 94.7717C525.585 93.3877 525.585 93.3877 530.258 85.4766C501.386 85.4764 474.132 85.4873 446.34 87.1884C452.305 95.633 458.984 102.136 465.306 108.971C467.104 110.914 468.885 113.802 468.928 116.287C469.24 134.086 468.691 151.906 469.299 169.69C469.56 177.306 466.769 181.655 460.923 186.174C455.3 190.519 451.3 196.961 445.692 203.529C469.526 207.011 524.257 205.248 529.068 201.032C522.766 191.392 512.28 198.607 504.147 194.779C504.711 193.292 504.845 191.261 505.925 190.359C515.247 182.561 522.044 173.006 526.844 161.898C527.358 160.707 529.22 159.146 530.259 159.281C540.366 160.594 552.103 154.298 561.172 168.108C561.172 152.38 561.172 139.269 561.172 126.055C560.583 126.004 559.49 125.561 558.891 125.926C557.507 126.771 556.259 127.911 555.136 129.1C549.225 135.358 530.258 133.99 525.83 127.268C520.372 118.984 514.445 111.008 507.839 102.019ZM537.599 179.9C538.995 182.818 540.147 185.916 542.039 188.467C542.337 188.869 547.065 187.303 547.8 185.736C548.693 183.83 548.184 179.256 547.119 178.845C544.505 177.837 541.225 178.555 537.599 179.9ZM427.029 181.309C428.201 183.843 429.373 186.377 430.544 188.911C432.864 187.737 436.438 187.07 437.171 185.256C438.005 183.191 436.304 180.103 435.705 177.459C432.825 178.253 429.944 179.046 427.029 181.309ZM546.431 110.86C551.458 104.221 545.051 103.864 541.635 101.499C539.412 103.831 537.463 105.875 535.01 108.448C538.83 110.969 540.084 118.195 546.431 110.86ZM428.651 104.087C429.04 107.293 429.429 110.5 429.818 113.707C431.738 113.428 434.773 113.771 435.346 112.743C436.566 110.553 437.619 107.054 436.633 105.226C435.796 103.676 431.999 103.719 428.651 104.087Z" fill="#F9F9FB"/>
<path d="M311.209 132.964C316.985 118.712 336.596 109.363 349.594 114.205C369.929 121.78 375.136 136.669 371.932 153.126C368.742 169.514 356.249 178.393 339.385 178.393C308.13 178.393 276.875 178.446 245.62 178.358C235.39 178.329 230.294 172.686 232.784 164.925C234.445 159.747 238.011 159.001 242.817 159.039C265.299 159.217 287.784 159.118 307.677 159.118C308.879 150.217 309.996 141.943 311.209 132.964ZM328.722 142.377C326.22 148.438 327.921 154.076 333.14 156.886C337.015 158.972 343.751 160.319 346.788 158.319C351.313 155.34 356.105 149.356 353.039 142.991C351.065 138.892 346.837 134.584 342.66 133.142C336.426 130.989 330.808 133.786 328.722 142.377Z" fill="#F9F9FB"/>
<path d="M370.593 370.14C359.275 388.289 346.49 391.742 327.979 386.366C317.748 383.396 306.041 369.326 307.825 355.132C308.307 351.297 309.829 347.592 311.044 343.214C293.609 343.214 276.414 343.149 259.22 343.249C253.236 343.284 248.304 342.893 247.948 334.898C247.59 326.865 252.282 324.404 258.752 324.058C266.621 323.637 274.529 323.953 282.421 323.951C300.833 323.946 319.269 324.495 337.652 323.754C351.178 323.209 362.181 328.575 368.377 339.124C372.335 345.864 370.759 355.881 371.507 364.443C371.65 366.081 371.054 367.784 370.593 370.14ZM348.852 346.67C342.634 341.7 335.516 341.998 330.659 347.431C326.766 351.786 327.44 361.963 331.774 366.475C337.012 371.928 342.138 372.621 347.905 367.075C354.452 360.777 355.261 354.482 348.852 346.67Z" fill="#FAF9FB"/>
<path d="M203.223 326.066C209.155 334.662 206.487 343.054 198.136 343.093C154.675 343.3 111.213 343.19 67.9527 343.19C61.4075 328.954 64.7695 323.965 80.505 323.956C117.86 323.937 155.214 323.904 192.568 324.028C195.903 324.039 199.234 325.153 203.223 326.066Z" fill="#FAF9FB"/>
<path d="M226.964 132.77C208.019 132.768 189.932 133.19 171.897 132.42C168.116 132.258 163.374 128.389 161.304 124.906C160.179 123.015 163.192 117.897 165.424 115.099C166.599 113.627 170.106 113.634 172.564 113.62C191.798 113.51 211.032 113.555 230.266 113.555C238.398 113.554 246.535 113.735 254.66 113.506C260.824 113.332 263.865 115.855 263.788 122.121C263.708 128.624 260.587 132.467 254.066 132.679C245.332 132.962 236.583 132.763 226.964 132.77Z" fill="#F8F7F9"/>
<path d="M221.697 371.242C230.469 371.252 238.371 371.458 246.259 371.212C252.959 371.004 255.667 375.526 254.591 380.404C253.754 384.194 249.298 389.977 246.308 390.066C220.596 390.83 194.841 390.826 169.128 390.056C166.116 389.966 161.416 384.149 160.825 380.455C160.023 375.438 163.091 371.094 169.936 371.205C186.893 371.48 203.858 371.262 221.697 371.242Z" fill="#FAF9FA"/>
<path d="M146.25 159.116C159.652 159.116 172.194 159.489 184.698 158.97C191.727 158.679 194.664 161.637 195.316 168.076C196.021 175.048 190.708 177.956 185.9 178.092C164.361 178.705 142.786 178.7 121.245 178.134C115.654 177.988 112.653 173.333 112.879 167.155C113.098 161.16 116.216 159.031 121.779 159.097C129.643 159.192 137.508 159.118 146.25 159.116Z" fill="#FAF9FB"/>
<path d="M950.079 366.638C870.164 364.912 813.627 302.811 817.163 228.649C819.459 180.493 842.541 140.375 886.106 118.876C938.149 93.1929 997.65 102.726 1037.65 151.316C1045.75 161.147 1052.42 172.173 1059.46 182.836C1066.69 193.78 1063.04 199.823 1050.37 199.86C1025.98 199.932 1002.39 204.393 985.031 176.272C971.054 153.626 926.545 154.333 904.794 171.56C871.523 197.911 864.907 237.605 886.799 275.802C908.193 313.132 947.44 321.681 983.48 301.49C985.016 300.629 987.285 299.974 987.852 298.645C1000.9 268.061 1027.96 277.294 1051.25 276.542C1063.29 276.153 1064.74 281.544 1059.87 292.445C1044.35 327.168 1016.24 346.759 982.069 359.253C972.348 362.807 961.863 364.274 950.079 366.638Z" fill="#FAF9FB"/>
<path d="M1717.83 189.977C1720.75 193.594 1722.39 196.534 1723.95 199.338C1727.73 193.077 1730.63 183.221 1734.44 182.857C1748.6 181.504 1763.08 182.928 1777.34 184.362C1778.93 184.522 1780.88 191.409 1780.9 195.187C1781.19 246.41 1781.36 297.638 1780.84 348.858C1780.8 353.263 1776.12 360.973 1772.84 361.406C1759.84 363.117 1746.45 363.481 1733.42 362.195C1729.88 361.846 1727.1 353.941 1723.06 348.202C1693.28 373.925 1661.4 370.85 1628.15 352.297C1607.16 340.583 1598.07 320.539 1593.47 300.198C1585.21 263.672 1592 229.526 1621.16 202.14C1642.4 182.185 1681.56 174.7 1708.23 186.98C1710.81 188.169 1713.76 188.547 1717.83 189.977ZM1654.31 242.599C1651.87 255.69 1647.24 268.831 1647.53 281.86C1647.92 299.072 1659.05 310.573 1675.11 317.188C1688.99 322.907 1701.76 320.29 1710.02 308.782C1717.23 298.722 1722.83 286.568 1725.64 274.524C1729.63 257.467 1717.62 241.113 1701.47 232.375C1683.44 222.619 1669.89 231.098 1654.31 242.599Z" fill="#F9F9FB"/>
<path d="M2565.1 202.711C2603.41 240.497 2608.28 289.437 2577.26 330.362C2554 361.058 2503.38 375.707 2466.91 361.762C2408.35 339.371 2395.51 288.48 2409.17 242.051C2418.87 209.093 2442.66 189.317 2477.07 181.75C2509.72 174.568 2537.91 182.993 2565.1 202.711ZM2518.04 315.92C2519.26 314.082 2520.06 311.642 2521.75 310.497C2545.6 294.32 2539.75 271.429 2534.8 249.526C2531.24 233.775 2502.58 222.833 2487.5 228.944C2463.42 238.697 2461.83 257.692 2462.65 279.886C2463.84 311.884 2483.18 326.233 2518.04 315.92Z" fill="#F9F8FB"/>
<path d="M1245.33 206.428C1271.49 238.875 1280.49 274.091 1262.33 310.963C1231.84 372.902 1167.63 382.26 1117.97 349.318C1077.38 322.388 1066.96 277.744 1088.2 230.981C1114.13 173.851 1194.31 169.624 1234.19 198.788C1237.47 201.183 1241 203.223 1245.33 206.428ZM1173.7 225.434C1137.1 234.79 1134.03 256.264 1136.01 278.796C1137.94 300.635 1149.79 317.311 1172.12 319.559C1188.82 321.24 1205.16 308.593 1210.67 290.034C1219.59 260 1208.28 238.598 1173.7 225.434Z" fill="#FAF9FB"/>
<path d="M2067.67 301.481C2067.65 318.378 2067.14 333.488 2067.78 348.549C2068.25 359.699 2063.81 363.964 2052.9 363.117C2045.69 362.557 2038.17 364.157 2031.23 362.696C2024.09 361.194 2017.49 357.148 2010.65 354.215C2011.23 352.763 2011.8 351.311 2012.37 349.86C2003.12 354.28 1994.17 359.591 1984.55 362.949C1958.39 372.077 1921.58 359.925 1909.68 336.592C1904.87 327.171 1904.87 314.728 1904.69 303.627C1904.12 268.63 1904.94 233.609 1904.27 198.616C1904.04 186.049 1907.99 181.521 1920.83 181.895C1966.56 183.23 1957.95 176.347 1958.78 218.488C1959.21 240.208 1958.86 261.942 1958.88 283.67C1958.9 303.76 1967.53 315.812 1982 315.995C2002.02 316.248 2012.78 305.83 2013.22 284.041C2013.78 256.288 2014.02 228.496 2013.14 200.761C2012.7 186.962 2016.17 181.287 2031.21 181.745C2074.31 183.057 2067 176.374 2067.6 218.194C2067.99 245.348 2067.67 272.513 2067.67 301.481Z" fill="#F9F8FA"/>
<path d="M1372.92 228.309C1347.19 232.326 1342.36 237.76 1342.3 260.955C1342.24 289.909 1341.81 318.871 1342.43 347.811C1342.68 359.831 1338.24 363.479 1326.54 363.207C1280.15 362.129 1288.6 368.429 1288.1 325.133C1287.62 282.915 1288.41 240.681 1287.79 198.467C1287.61 185.77 1291.8 180.732 1304.47 181.896C1312.25 182.61 1320.38 180.887 1327.93 182.387C1333.95 183.586 1339.34 188.001 1347.95 192.541C1354.65 190.175 1366.14 185.099 1378.15 182.065C1417.89 172.025 1451.08 198.205 1451.11 239.026C1451.14 274.615 1450.56 310.216 1451.39 345.785C1451.71 359.589 1446.72 364.118 1433.54 363.168C1422.15 362.349 1410.66 362.998 1396.83 362.998C1396.83 327.988 1396.34 293.274 1397.04 258.584C1397.38 241.723 1390.38 232.218 1372.92 228.309Z" fill="#F8F8FA"/>
<path d="M2209.27 355.886C2210.14 331.265 2211.39 308.214 2211.74 285.149C2211.88 275.745 2208.94 266.25 2209.44 256.906C2210.18 243.048 2202.9 234.158 2191.39 232.025C2182.09 230.302 2168.1 231.361 2162.65 237.201C2156.32 243.993 2155.39 257.281 2155 267.857C2154.01 294.387 2154.22 320.988 2154.84 347.54C2155.12 359.348 2151.03 363.521 2139.14 363.202C2093 361.961 2100.97 369.433 2100.48 325.475C2100.02 283.215 2100.81 240.94 2100.17 198.685C2099.99 187.057 2104.54 182.35 2115.25 182.112C2124.31 181.91 2133.58 180.907 2142.37 182.448C2147.76 183.394 2152.44 188.464 2159.37 192.928C2179.22 179.517 2204.13 174.154 2231.38 185.561C2252.35 194.336 2262.98 210.344 2263.33 232.406C2263.95 271.038 2263.24 309.69 2263.67 348.328C2263.79 359.283 2259.88 364.373 2248.9 362.973C2235.67 361.288 2222.49 359.305 2209.27 355.886Z" fill="#FAF9FB"/>
<path d="M2303.49 283.182C2303.5 271.769 2303.59 262.127 2303.48 252.489C2303.33 238.602 2307.93 221.749 2283.18 224.107C2281.15 224.301 2275.55 207.976 2275.24 199.198C2274.95 190.918 2277.86 180.804 2290.51 182.264C2294.42 182.715 2298.17 184.448 2302.45 185.73C2303.42 170.695 2303.86 156.55 2305.51 142.548C2306.08 137.654 2309.26 129.317 2311.92 129.042C2326.2 127.564 2340.74 127.513 2355.07 128.607C2357.46 128.789 2360.76 136.938 2361.01 141.548C2361.78 155.803 2361.29 170.128 2361.29 184.212C2398.01 187.616 2397.42 187.625 2397.75 208.624C2398.22 238.664 2374.4 219.053 2361.38 228.876C2361.38 250.299 2360.75 274.797 2361.65 299.239C2362.08 310.891 2370.39 316.702 2382.06 315.925C2405.01 314.394 2396.24 331.529 2397.47 342.226C2398.91 354.658 2394.82 363.907 2380.01 362.95C2366.49 362.076 2352.71 361.923 2339.58 359.023C2318.98 354.474 2304.81 332.741 2303.52 306.643C2303.16 299.431 2303.48 292.186 2303.49 283.182Z" fill="#F8F8FA"/>
<path d="M1523.09 357.136C1501.12 351.973 1494.53 334.088 1491.49 308.361C1489.45 291.129 1491.09 273.459 1491.12 255.985C1491.15 227.255 1491.16 227.255 1463.13 223.784C1463.13 212.084 1463.13 200.214 1463.13 186.491C1471.42 184.614 1480.78 182.493 1490.94 180.191C1490.94 164.869 1490.94 149.332 1490.94 130.688C1509.26 130.688 1526.7 130.688 1546.57 130.688C1546.57 149.571 1546.57 166.609 1546.57 183.815C1553.89 183.119 1559.07 181.391 1563.56 182.481C1570.72 184.214 1582.41 186.736 1583.31 190.861C1585.47 200.703 1583.2 211.85 1580.86 222.047C1580.39 224.117 1571.57 225.777 1566.94 225.135C1548.81 222.62 1543.69 230.569 1545.2 247.573C1546.52 262.519 1545.59 277.677 1545.44 292.739C1545.29 308.048 1552.33 316.894 1567.99 315.795C1581.48 314.849 1585.79 319.609 1585.51 333.172C1584.9 362.896 1570.5 371.751 1535.6 362.162C1531.72 361.095 1527.98 359.512 1523.09 357.136Z" fill="#F8F8FA"/>
<path d="M1817.43 348.138C1817.43 312.626 1817.68 278.864 1817.32 245.109C1817.16 229.791 1815.52 214.494 1815.08 199.173C1814.8 189.561 1817.9 181.987 1829.58 182.026C1841.63 182.066 1853.68 182.035 1867.33 182.035C1867.61 187.348 1868.13 192.504 1868.13 197.661C1868.2 259.754 1866.4 321.923 1869.04 383.905C1870.2 411.18 1839.29 438.827 1814.44 439.073C1798.17 439.234 1781.91 439.103 1764.33 439.103C1764.33 423.936 1764.33 409.228 1764.33 395.375C1779.56 392.288 1797.46 392.525 1810.18 384.541C1817.12 380.186 1815.3 361.896 1817.43 348.138Z" fill="#FAFAFC"/>
<path d="M1862.99 103.134C1875.43 132.557 1873.72 140.129 1856.5 152.211C1842.3 162.179 1829.12 155.92 1819.61 147.72C1812.69 141.754 1806.12 131.053 1813.23 117.885C1820.9 103.686 1831 97.3985 1846.38 98.8386C1851.54 99.322 1856.58 101.149 1862.99 103.134Z" fill="#FAF9FA"/>
<path d="M2605.58 358.817C2593.57 347.156 2591.97 335.238 2600.21 322.266C2608.83 308.676 2622.46 304.598 2635.93 310.21C2648.39 315.398 2659.94 326.394 2654.37 341.899C2651.03 351.184 2642.83 361.619 2634.18 365.209C2627 368.189 2615.98 361.921 2605.58 358.817Z" fill="#F8F7F9"/>
</svg>
